<svg width="324" height="347" xmlns="http://www.w3.org/2000/svg" xmlns:xlink="http://www.w3.org/1999/xlink" xml:space="preserve" overflow="hidden"><g transform="translate(-1043 -99)"><path d="M1046.5 206.501C1046.5 186.066 1063.07 169.5 1083.5 169.5L1255.5 169.5C1275.93 169.5 1292.5 186.066 1292.5 206.501L1292.5 354.499C1292.5 374.934 1275.93 391.5 1255.5 391.5L1083.5 391.5C1063.07 391.5 1046.5 374.934 1046.5 354.499Z" stroke="#024059" stroke-width="6.875" stroke-miterlimit="8" fill="#07A9B5" fill-rule="evenodd"/><path d="M1095.5 174.334C1095.5 153.991 1111.99 137.5 1132.33 137.5L1304.67 137.5C1325.01 137.5 1341.5 153.991 1341.5 174.334L1341.5 321.666C1341.5 342.009 1325.01 358.5 1304.67 358.5L1132.33 358.5C1111.99 358.5 1095.5 342.009 1095.5 321.666Z" stroke="#042433" stroke-width="6.875" stroke-miterlimit="8" fill="#4E95D9" fill-rule="evenodd"/><text fill="#FFFFFF" font-family="Algerian,Algerian_MSFontService,sans-serif" font-weight="400" font-stretch="extra-condensed" font-size="165" transform="matrix(1 0 0 1 1168.23 307)">N</text></g></svg>