<svg width="300.00000000" height="100.00000000" viewBox="-75.00000000, -25.00000000, 450.00000000, 150.00000000" xmlns="http://www.w3.org/2000/svg">
<rect width="300.00000000" height="100.00000000" fill="white" stroke="black"/>
<polygon fill="grey" stroke="black" points="0.00000000,0.00000000 33.00000000,0.00000000 33.00000000,19.00000000 3.00000000,11.00000000 "/> 
<polygon fill="grey" stroke="black" points="33.00000000,-0.00000000 75.00000000,-0.00000000 70.00000000,30.00000000 33.00000000,19.00000000 "/> 
<polygon fill="grey" stroke="black" points="75.00000000,0.00000000 100.00000000,0.00000000 100.00000000,51.00000000 70.00000000,30.00000000 "/> 
<polygon fill="grey" stroke="black" points="0.00000000,0.00000000 3.00000000,11.00000000 7.00000000,33.00000000 8.00000000,38.00000000 0.00000000,36.00000000 "/> 
<polygon fill="grey" stroke="black" points="3.00000000,11.00000000 33.00000000,19.00000000 70.00000000,30.00000000 59.00000000,40.00000000 7.00000000,33.00000000 "/> 
<polygon fill="grey" stroke="black" points="70.00000000,30.00000000 100.00000000,51.00000000 100.00000000,100.00000000 66.00000000,100.00000000 54.00000000,72.00000000 47.00000000,53.00000000 59.00000000,40.00000000 "/> 
<polygon fill="grey" stroke="black" points="7.00000000,33.00000000 59.00000000,40.00000000 47.00000000,53.00000000 54.00000000,72.00000000 10.00000000,63.00000000 8.00000000,38.00000000 "/> 
<polygon fill="grey" stroke="black" points="0.00000000,36.00000000 8.00000000,38.00000000 10.00000000,63.00000000 12.00000000,100.00000000 0.00000000,100.00000000 "/> 
<polygon fill="grey" stroke="black" points="10.00000000,63.00000000 54.00000000,72.00000000 26.00000000,100.00000000 12.00000000,100.00000000 "/> 
<polygon fill="grey" stroke="black" points="26.00000000,100.00000000 54.00000000,72.00000000 66.00000000,100.00000000 "/> 
</svg>
