<svg width="300.00000000" height="100.00000000" viewBox="-75.00000000, -25.00000000, 450.00000000, 150.00000000" xmlns="http://www.w3.org/2000/svg">
<rect width="300.00000000" height="100.00000000" fill="white" stroke="black"/>
<polygon fill="grey" stroke="black" points="0.00000000,0.00000000 35.00000000,0.00000000 0.00000000,34.00000000 "/> 
<polygon fill="grey" stroke="black" points="35.00000000,0.00000000 68.00000000,0.00000000 53.00000000,15.00000000 "/> 
<polygon fill="grey" stroke="black" points="68.00000000,0.00000000 100.00000000,0.00000000 100.00000000,41.00000000 82.00000000,33.00000000 "/> 
<polygon fill="grey" stroke="black" points="35.00000000,0.00000000 53.00000000,15.00000000 51.00000000,38.00000000 48.00000000,62.00000000 39.00000000,57.00000000 -0.00000000,34.00000000 "/> 
<polygon fill="grey" stroke="black" points="53.00000000,15.00000000 68.00000000,-0.00000000 82.00000000,33.00000000 76.00000000,34.00000000 51.00000000,38.00000000 "/> 
<polygon fill="grey" stroke="black" points="0.00000000,34.00000000 39.00000000,57.00000000 20.00000000,60.00000000 0.00000000,100.00000000 "/> 
<polygon fill="grey" stroke="black" points="51.00000000,38.00000000 76.00000000,34.00000000 78.00000000,52.00000000 80.00000000,73.00000000 73.00000000,71.00000000 48.00000000,62.00000000 "/> 
<polygon fill="grey" stroke="black" points="76.00000000,34.00000000 82.00000000,33.00000000 100.00000000,41.00000000 78.00000000,52.00000000 "/> 
<polygon fill="grey" stroke="black" points="78.00000000,52.00000000 100.00000000,41.00000000 80.00000000,73.00000000 "/> 
<polygon fill="grey" stroke="black" points="80.00000000,73.00000000 100.00000000,41.00000000 100.00000000,78.00000000 "/> 
<polygon fill="grey" stroke="black" points="48.00000000,62.00000000 73.00000000,71.00000000 47.00000000,77.00000000 "/> 
<polygon fill="grey" stroke="black" points="20.00000000,60.00000000 39.00000000,57.00000000 48.00000000,62.00000000 47.00000000,77.00000000 44.00000000,100.00000000 "/> 
<polygon fill="grey" stroke="black" points="20.00000000,60.00000000 44.00000000,100.00000000 -0.00000000,100.00000000 "/> 
<polygon fill="grey" stroke="black" points="47.00000000,77.00000000 73.00000000,71.00000000 80.00000000,73.00000000 44.00000000,100.00000000 "/> 
<polygon fill="grey" stroke="black" points="44.00000000,100.00000000 80.00000000,73.00000000 100.00000000,100.00000000 "/> 
<polygon fill="grey" stroke="black" points="80.00000000,73.00000000 100.00000000,78.00000000 100.00000000,100.00000000 "/> 
</svg>
